<svg xmlns="http://www.w3.org/2000/svg" width="94.9" height="63.5" viewBox="0 0 94.9 63.5"><path opacity=".1" fill="#4B4768" d="M23.4 28V13.1c-2.2.6-4.2 2.1-5.2 4.2l-4.8 9.5v22c1.4 2.4 4 4.1 7 4.1h64c4.4 0 8-3.6 8-8V43h-54c-8.3 0-15-6.7-15-15z"/><path fill="none" stroke="#FF9494" stroke-width="3" stroke-linecap="round" stroke-linejoin="round" stroke-miterlimit="10" d="M13.9 37.5h14M32.9 37.5h1"/><path fill="#FF9494" d="M71.5 27H56.9c-.6 0-1-.4-1-1v-7c0-.6.4-1 1-1h7.6c.3 0 .5.1.7.3l7 7c.6.6.2 1.7-.7 1.7zM28.6 27h19.3c.6 0 1-.4 1-1v-7c0-.6-.4-1-1-1H32.5c-.4 0-.7.2-.9.5l-3.9 7c-.3.7.2 1.5.9 1.5z"/><path fill="none" stroke="#4B4668" stroke-width="3" stroke-linecap="round" stroke-linejoin="round" stroke-miterlimit="10" d="M75 26.5L63.7 15.2c-1.5-1.5-3.5-2.3-5.7-2.3H26.3c-3 0-5.8 1.7-7.2 4.4l-4.9 9.9c-.6 1.1-.8 2.3-.8 3.6v14.1c0 4.4 3.6 8 8 8h64c4.4 0 8-3.6 8-8v-8c0-4.4-3.6-8-8-8h-4.7c-2.1 0-4.2-.9-5.7-2.4z"/><circle fill="#FFF" stroke="#4B4668" stroke-width="3" stroke-linecap="round" stroke-linejoin="round" stroke-miterlimit="10" cx="32.4" cy="53" r="9"/><circle fill="#FFF" stroke="#4B4668" stroke-width="3" stroke-linecap="round" stroke-linejoin="round" stroke-miterlimit="10" cx="72.4" cy="53" r="9"/><path fill="none" stroke="#4B4668" stroke-width="3" stroke-linecap="round" stroke-linejoin="round" stroke-miterlimit="10" d="M50.9 37.5h4M93.2 40.7h-2.3c-1.8 0-3.3-1.4-3.3-3.2 0-1.8 1.5-3.2 3.3-3.2h1.6M50.2 62h35.4M13.8 62h29.4M8.9 62h.8M66.5 29H51.9c-.6 0-1-.4-1-1v-7c0-.6.4-1 1-1h7.6c.3 0 .5.1.7.3l7 7c.6.6.2 1.7-.7 1.7zM23.6 29h19.3c.6 0 1-.4 1-1v-7c0-.6-.4-1-1-1H27.5c-.4 0-.7.2-.9.5l-3.9 7c-.3.7.2 1.5.9 1.5zM7.9 41.5h5M10.9 44h2M3.9 41.5"/><g opacity=".2" fill="none" stroke="#4B4668" stroke-width="3" stroke-linecap="round" stroke-linejoin="round" stroke-miterlimit="10"><path d="M4 26.4v5M6.5 28.9h-5"/></g><g opacity=".2" fill="none" stroke="#4B4668" stroke-width="3" stroke-linecap="round" stroke-linejoin="round" stroke-miterlimit="10"><path d="M83.8 16.9v5M86.3 19.4h-5"/></g><circle opacity=".5" fill="none" stroke="#FF9494" stroke-width="3" stroke-linecap="round" stroke-linejoin="round" stroke-miterlimit="10" cx="57.4" cy="4" r="2.5"/></svg>