<svg xmlns="http://www.w3.org/2000/svg" width="79.7" height="52.5" viewBox="0 0 79.7 52.5"><circle fill="#9797FF" cx="27" cy="38" r="10"/><circle fill="#9797FF" cx="67" cy="38" r="10"/><path fill="none" stroke="#9797FF" stroke-width="3" stroke-linecap="round" stroke-linejoin="round" stroke-miterlimit="10" d="M8.5 38.5h6M44.5 40.5h5"/><circle fill="none" stroke="#4B4668" stroke-width="3" stroke-linecap="round" stroke-linejoin="round" stroke-miterlimit="10" cx="25" cy="41" r="10"/><circle fill="none" stroke="#4B4668" stroke-width="3" stroke-linecap="round" stroke-linejoin="round" stroke-miterlimit="10" cx="65" cy="41" r="10"/><path fill="none" stroke="#4B4668" stroke-width="3" stroke-linecap="round" stroke-linejoin="round" stroke-miterlimit="10" d="M42.8 51h35.4M6.4 51h29.4M1.5 51h.8"/><g opacity=".2" fill="none" stroke="#4B4668" stroke-width="3" stroke-linecap="round" stroke-linejoin="round" stroke-miterlimit="10"><path d="M15.6 18.4v5M18.1 20.9h-5"/></g><g opacity=".2" fill="none" stroke="#4B4668" stroke-width="3" stroke-linecap="round" stroke-linejoin="round" stroke-miterlimit="10"><path d="M72.3 18.9v5M74.8 21.4h-5"/></g><circle opacity=".5" fill="none" stroke="#9797FF" stroke-width="3" stroke-linecap="round" stroke-linejoin="round" stroke-miterlimit="10" cx="49" cy="4" r="2.5"/><path fill="none" stroke="#4B4668" stroke-width="3" stroke-linecap="round" stroke-linejoin="round" stroke-miterlimit="10" d="M58.5 23.5h-20l-13 17h20zM64.9 40.5L57.3 17c-.7-2.2.9-4.5 3.3-4.5 1.4 0 2.6.8 3.2 2.1"/><path fill="none" stroke="#4B4668" stroke-width="3" stroke-linecap="round" stroke-linejoin="round" stroke-miterlimit="10" d="M44.5 39.5l-7-22h7M11.5 41h2"/></svg>