<svg xmlns="http://www.w3.org/2000/svg" width="127.3" height="63.3" viewBox="0 0 127.3 63.3"><path opacity=".1" fill="#4B4868" d="M24 23.8V12.7h-7.5c-.6 0-1 .4-1 1v29c0 5.5 4.5 10 10 10h89c.6 0 1-.4 1-1v-7.9H44c-11 0-20-8.9-20-20z"/><path fill="#9797FF" d="M97.5 32.7h-8c-.6 0-1-.4-1-1v-15c0-.6.4-1 1-1h8c.6 0 1 .4 1 1v15c0 .5-.4 1-1 1zM57.5 32.7h-8c-.6 0-1-.4-1-1v-15c0-.6.4-1 1-1h8c.6 0 1 .4 1 1v15c0 .5-.4 1-1 1zM37.5 32.7h-8c-.6 0-1-.4-1-1v-15c0-.6.4-1 1-1h8c.6 0 1 .4 1 1v15c0 .5-.4 1-1 1z"/><path fill="none" stroke="#9797FF" stroke-width="3" stroke-linecap="round" stroke-linejoin="round" stroke-miterlimit="10" d="M57.5 43.3h7M52.5 43.3h1"/><path fill="none" stroke="#4B4668" stroke-width="3" stroke-linecap="round" stroke-linejoin="round" stroke-miterlimit="10" d="M73.8 61.8h22.4M20.4 61.8h36.4M15.5 61.8h.8M114.5 52.7h-89c-5.5 0-10-4.5-10-10v-29c0-.6.4-1 1-1h89c5.5 0 10 4.5 10 10v29c0 .5-.4 1-1 1z"/><circle fill="#FFF" stroke="#4B4668" stroke-width="3" stroke-linecap="round" stroke-linejoin="round" stroke-miterlimit="10" cx="35.1" cy="52.8" r="9"/><circle fill="#FFF" stroke="#4B4668" stroke-width="3" stroke-linecap="round" stroke-linejoin="round" stroke-miterlimit="10" cx="95.9" cy="52.8" r="9"/><path fill="none" stroke="#4B4668" stroke-width="3" stroke-linecap="round" stroke-linejoin="round" stroke-miterlimit="10" d="M115.5 39.7c-5.5 0-10-4.5-10-10v-11h16v5.6M94.5 35.7h-8c-.6 0-1-.4-1-1v-15c0-.6.4-1 1-1h8c.6 0 1 .4 1 1v15c0 .5-.4 1-1 1zM65.5 18.7h10v34h-10zM54.5 35.7h-8c-.6 0-1-.4-1-1v-15c0-.6.4-1 1-1h8c.6 0 1 .4 1 1v15c0 .5-.4 1-1 1zM34.5 35.7h-8c-.6 0-1-.4-1-1v-15c0-.6.4-1 1-1h8c.6 0 1 .4 1 1v15c0 .5-.4 1-1 1zM63.8 61.8h2.4M9.5 41.3h5M12.5 43.8h2M5.5 41.3"/><g opacity=".2" fill="none" stroke="#4B4668" stroke-width="3" stroke-linecap="round" stroke-linejoin="round" stroke-miterlimit="10"><path d="M33.3 1.5v5M35.8 4h-5"/></g><circle opacity=".5" fill="none" stroke="#9797FF" stroke-width="3" stroke-linecap="round" stroke-linejoin="round" stroke-miterlimit="10" cx="4" cy="23.8" r="2.5"/><g opacity=".2" fill="none" stroke="#4B4668" stroke-width="3" stroke-linecap="round" stroke-linejoin="round" stroke-miterlimit="10"><path d="M123.3 46.5v5M125.8 49h-5"/></g></svg>