<svg xmlns="http://www.w3.org/2000/svg" width="89" height="78" viewBox="0 0 89 78"><path opacity=".1" fill="#4B4668" d="M82.5 35.8v1.1c0 6.9-5.6 12.6-12.6 12.6H2.8c1.7 3 5 5 8.7 5h65.7c5.3 0 9.9-4 10.3-9.2.3-4-1.8-7.6-5-9.5z"/><path fill="none" stroke="#F59394" stroke-width="3" stroke-linecap="round" stroke-linejoin="round" stroke-miterlimit="10" d="M3.5 48.5h14"/><path fill="#FF9494" d="M65.3 34.5H43.8c-.2 0-.4-.1-.4-.3L36 17.3c-1.2-2.8.8-5.8 3.8-5.8 1 0 2.1.4 2.8 1.1l22.9 21.1c.4.3.2.8-.2.8z"/><path fill="none" stroke="#4B4668" stroke-width="3" stroke-linecap="round" stroke-linejoin="round" stroke-miterlimit="10" d="M62.5 34.5h-23L32 17.3c-1.2-2.8.8-5.8 3.8-5.8 1 0 2.1.4 2.8 1.1l23.9 21.9z"/><path fill="none" stroke="#4B4668" stroke-width="3" stroke-linecap="round" stroke-linejoin="round" stroke-miterlimit="10" d="M13.5 34.5l-5-10c-.6-1.3-1.9-2-3.3-2-2 0-3.7 1.7-3.7 3.7v18.3c0 5.5 4.5 10 10 10h66c5.5 0 10-4.5 10-10s-4.5-10-10-10h-64z"/><path fill="#FFF" stroke="#4B4668" stroke-width="3" stroke-linecap="round" stroke-linejoin="round" stroke-miterlimit="10" d="M39.5 48.5l-8 22.3c-1 2.8 1.1 5.7 4 5.7 1.2 0 2.4-.5 3.2-1.4l23.7-26.6"/><path fill="none" stroke="#4B4668" stroke-width="3" stroke-linecap="round" stroke-linejoin="round" stroke-miterlimit="10" d="M16.5 40.5l-6-12"/><g fill="none" stroke="#4B4668" stroke-width="3" stroke-linecap="round" stroke-linejoin="round" stroke-miterlimit="10"><path d="M29.5 41.5"/></g><path fill="none" stroke="#4B4668" stroke-width="3" stroke-linecap="round" stroke-linejoin="round" stroke-miterlimit="10" d="M86.5 41.5h-9M29.5 60.5h5M31.5 63h2M29.5 28.5h7M31.5 26h2"/><g opacity=".2" fill="none" stroke="#4B4668" stroke-width="3" stroke-linecap="round" stroke-linejoin="round" stroke-miterlimit="10"><path d="M19.6 21.4v5M22.1 23.9h-5"/></g><g opacity=".2" fill="none" stroke="#4B4668" stroke-width="3" stroke-linecap="round" stroke-linejoin="round" stroke-miterlimit="10"><path d="M72.3 19.9v5M74.8 22.4h-5"/></g><circle opacity=".5" fill="none" stroke="#F59394" stroke-width="3" stroke-linecap="round" stroke-linejoin="round" stroke-miterlimit="10" cx="27" cy="4" r="2.5"/></svg>